<svg width="440" height="440" viewBox="0 0 440 440" fill="none" xmlns="http://www.w3.org/2000/svg">
<path fill-rule="evenodd" clip-rule="evenodd" d="M212.29 262.537L216.74 264.435C225.087 267.995 234.3 269.005 243.22 267.338L281.981 260.094C309.432 254.963 327.526 228.551 322.396 201.1L314.795 160.432C311.064 140.468 291.855 127.308 271.89 131.04L243.459 136.354L246.485 109.863C248.526 91.9958 234.894 76.1863 216.921 75.5767C201.461 75.0524 188.01 86.0739 185.483 101.335L181.673 124.355C180.813 129.551 179.282 134.608 177.122 139.4L134.642 147.339L127.294 158.065L147.563 266.511L158.289 273.86L212.512 263.725L212.29 262.537ZM216.298 93.9535C210.065 93.7421 204.642 98.1854 203.624 104.338L199.813 127.358C198.407 135.857 195.622 144.069 191.569 151.671L208.23 240.815L223.954 247.522C228.962 249.658 234.49 250.264 239.842 249.264L278.603 242.02C296.072 238.755 307.586 221.947 304.321 204.478L296.721 163.81C294.855 153.828 285.251 147.248 275.268 149.114L234.601 156.715L223.778 146.634L228.217 107.776C229.039 100.573 223.544 94.1992 216.298 93.9535ZM163.948 254.096L147.058 163.724L174.169 158.657L191.059 249.029L163.948 254.096Z" fill="#222428"/>
<path d="M63.3801 124.812C58.0633 127.137 46.0167 137.554 42.1897 142.401C33.251 153.722 30.0287 163.981 31.4494 178.208L31.4074 179.838L31.133 180.074L29.6779 179.878C28.6618 179.354 28.6603 179.707 27.5051 179.109L27.6692 179.021C27.346 178.882 27.0144 178.763 26.677 178.664C24.5546 178.024 18.386 177.27 16.0149 178.122C15.5632 178.284 15.5447 178.975 15.4221 179.528C14.2293 180.651 13.5402 183.783 12.8635 185.29C5.34552 202.024 3.99006 221.245 15.1701 236.752C17.3143 239.727 19.5593 241.993 21.6028 245.345C17.9302 246.059 11.3401 247.837 8.02267 249.619C7.81877 262.36 14.2886 280.992 23.6164 290.253C33.1609 299.729 37.9519 299.35 48.8889 304.588C45.6538 307.158 41.2766 312.091 39.3528 315.726C46.189 327.442 60.1605 338.937 73.3772 342.72C80.8956 345.348 90.1824 345.142 97.6125 342.383C104.471 340.244 108.536 337.838 114.411 333.542C116.547 331.98 118.718 329.752 121.015 328.589C123.758 341.947 120.164 350.082 107.84 356.139C105.971 356.231 96.2295 356.501 95.4299 357.059C95.4975 357.416 95.6511 357.934 95.5197 358.243C87.9744 361.71 90.4542 372.432 99.2668 372.86C109.318 373.349 117.244 370.216 124.847 363.869C131.52 358.299 136.962 347.879 137.622 339.281C138.45 329.301 135.281 319.399 128.812 311.751C126.482 309.047 124.181 307.076 121.769 304.622C111.141 293.805 100.876 288.461 85.6369 287.334C83.2131 274.907 80.0243 265.1 70.7756 255.843C68.3669 253.434 66.0045 251.91 63.4895 249.749C64.1685 245.792 65.6822 243.077 66.1965 239.083C67.0194 237.816 66.579 238.952 67.8029 238.236L67.9065 237.297C68.2345 231.085 68.7812 223.789 67.7121 217.724C67.132 214.228 65.4099 215.205 66.093 209.361C68.5265 208.113 74.9534 201.485 76.8684 199.221C84.9022 189.829 88.8764 177.634 87.9162 165.316C86.5412 148.895 75.5435 135.072 63.3801 124.812ZM84.384 303.232C95.6538 302.954 102.666 307.821 110.408 315.163C104.973 323.282 96.054 327.731 86.4768 328.6C75.0611 328.71 66.3502 324.404 59.4631 315.329C67.1178 308.002 72.7918 303.747 83.9748 303.245C84.111 303.24 84.2479 303.234 84.384 303.232ZM35.1867 258.372C52.1085 256.796 63.6974 266.473 68.5383 282.281C68.9703 283.69 69.176 284.963 69.3645 286.423C66.5954 287.43 62.278 287.936 59.3537 288.196C52.4162 289.205 43.9205 286.826 38.4133 282.577C31.1908 276.907 26.4679 268.645 25.2502 259.549C27.804 258.943 32.527 258.565 35.1867 258.372ZM25.4797 196.054C43.7585 201.874 54.21 212.813 51.6643 232.681C51.4151 234.627 51.0379 240.518 49.549 241.708C46.6036 241.303 46.4875 240.777 44.0041 239.857C23.8756 232.398 19.3029 214.791 25.4797 196.054ZM61.4397 145.049C62.6388 145.396 65.5026 149.663 66.3694 150.878C77.1843 166.042 72.8376 185.55 57.5695 195.874L57.1613 195.94C56.5051 195.478 55.6412 194.266 55.1281 193.584C49.1081 185.588 45.5432 177.582 47.0256 167.378C48.2457 158.981 54.7525 150.063 61.4397 145.049Z" fill="#222222"/>
<path d="M375.371 125C380.688 127.324 392.735 137.742 396.563 142.589C405.501 153.91 408.723 164.169 407.302 178.396L407.345 180.026L407.618 180.262L409.074 180.066C410.09 179.543 410.092 179.896 411.247 179.297L411.083 179.209C411.406 179.07 411.738 178.951 412.075 178.852C414.198 178.212 420.366 177.458 422.737 178.31C423.189 178.472 423.207 179.163 423.33 179.716C424.523 180.839 425.212 183.971 425.889 185.478C433.407 202.212 434.762 221.433 423.582 236.94C421.438 239.915 419.193 242.181 417.149 245.533C420.822 246.247 427.412 248.025 430.73 249.807C430.933 262.548 424.463 281.18 415.136 290.441C405.591 299.917 400.8 299.538 389.863 304.776C393.098 307.346 397.476 312.279 399.399 315.914C392.563 327.63 378.592 339.125 365.375 342.908C357.857 345.536 348.57 345.33 341.14 342.571C334.281 340.432 330.215 338.026 324.34 333.73C322.204 332.168 320.034 329.94 317.737 328.777C314.994 342.135 318.588 350.27 330.912 356.327C332.781 356.419 342.524 356.689 343.322 357.247C343.255 357.604 343.101 358.122 343.232 358.431C350.777 361.898 348.298 372.619 339.485 373.048C329.434 373.537 321.508 370.404 313.904 364.057C307.231 358.486 301.791 348.067 301.13 339.469C300.302 329.488 303.471 319.587 309.94 311.939C312.271 309.235 314.571 307.264 316.983 304.81C327.612 293.993 337.876 288.649 353.115 287.522C355.539 275.095 358.728 265.288 367.977 256.031C370.385 253.622 372.748 252.098 375.263 249.937C374.584 245.98 373.07 243.265 372.556 239.271C371.733 238.004 372.173 239.14 370.949 238.424L370.845 237.485C370.517 231.273 369.971 223.976 371.04 217.912C371.62 214.416 373.341 215.392 372.658 209.549C370.224 208.301 363.798 201.673 361.883 199.409C353.849 190.017 349.876 177.822 350.836 165.504C352.211 149.084 363.208 135.26 375.371 125ZM354.368 303.42C343.098 303.142 336.086 308.009 328.344 315.351C333.779 323.47 342.698 327.919 352.275 328.788C363.691 328.898 372.402 324.592 379.289 315.517C371.634 308.19 365.96 303.935 354.777 303.433C354.641 303.428 354.504 303.422 354.368 303.42ZM403.565 258.56C386.644 256.984 375.055 266.661 370.214 282.469C369.782 283.878 369.576 285.151 369.388 286.611C372.157 287.618 376.474 288.124 379.398 288.384C386.336 289.393 394.832 287.014 400.339 282.765C407.561 277.095 412.284 268.833 413.502 259.737C410.948 259.131 406.225 258.753 403.565 258.56ZM413.272 196.242C394.994 202.062 384.542 213.001 387.088 232.869C387.337 234.815 387.714 240.706 389.203 241.896C392.149 241.491 392.264 240.965 394.748 240.045C414.877 232.586 419.449 214.979 413.272 196.242ZM377.313 145.237C376.114 145.584 373.25 149.851 372.383 151.066C361.568 166.23 365.915 185.738 381.183 196.062L381.591 196.128C382.247 195.666 383.111 194.454 383.624 193.772C389.644 185.776 393.209 177.77 391.727 167.566C390.507 159.169 384 150.251 377.313 145.237Z" fill="#222222"/>
</svg>
